<?xml version="1.0" standalone="no"?>
<!DOCTYPE svg PUBLIC "-//W3C//DTD SVG 20010904//EN"
 "http://www.w3.org/TR/2001/REC-SVG-20010904/DTD/svg10.dtd">
<svg version="1.0" xmlns="http://www.w3.org/2000/svg"
 width="579.000000pt" height="579.000000pt" viewBox="0 0 579.000000 579.000000"
 preserveAspectRatio="xMidYMid meet">
<metadata>
Created by potrace 1.11, written by Peter Selinger 2001-2013
</metadata>
<g transform="translate(0.000000,579.000000) scale(0.100000,-0.100000)"
fill="#000000" stroke="none">
<path d="M2495 5502 c-3 -3 -16 -7 -28 -9 -39 -4 -118 -29 -112 -35 3 -3 -6
-8 -19 -12 -14 -3 -27 -5 -28 -4 -2 2 -14 -5 -28 -15 -13 -9 -31 -17 -39 -17
-8 0 -25 -9 -37 -21 -12 -11 -31 -21 -43 -22 -11 -1 -21 -7 -21 -14 0 -7 -12
-13 -27 -13 -22 0 -25 -2 -13 -10 8 -5 12 -10 8 -11 -5 -1 -12 -3 -18 -4 -5
-1 -13 -3 -17 -4 -5 -1 -1 -6 7 -11 13 -8 12 -10 -2 -10 -28 0 -32 -1 -45 -12
-7 -6 -10 -14 -7 -20 3 -5 -4 -18 -17 -29 -12 -10 -18 -19 -14 -19 5 0 -14
-15 -41 -32 -27 -18 -52 -32 -56 -30 -5 1 -7 -1 -6 -5 4 -14 -21 -51 -39 -57
-14 -6 -13 -2 5 14 12 11 22 25 22 31 0 6 -11 -3 -25 -19 -14 -17 -25 -34 -24
-39 3 -20 -2 -25 -16 -13 -12 10 -14 8 -10 -9 3 -14 -1 -21 -12 -21 -13 0 -13
-3 -3 -15 11 -13 10 -14 -5 -9 -13 5 -16 4 -11 -4 4 -7 2 -12 -3 -12 -6 0 -10
-6 -8 -12 1 -7 -5 -12 -14 -12 -9 1 -16 -5 -16 -13 0 -8 7 -12 16 -8 13 4 12
2 -1 -9 -10 -7 -18 -21 -18 -30 0 -9 -4 -16 -9 -16 -5 0 -8 -11 -6 -25 1 -18
-1 -22 -9 -16 -12 10 -16 -342 -4 -355 4 -4 5 3 3 15 -2 12 0 19 5 16 4 -3 7
-17 5 -31 -1 -15 3 -28 11 -31 8 -3 11 -9 8 -14 -2 -5 0 -18 7 -30 6 -12 7
-19 1 -15 -6 3 -10 -8 -9 -29 1 -19 4 -31 7 -25 3 5 11 5 20 0 11 -7 12 -10 2
-10 -7 0 -10 -5 -7 -10 5 -8 11 -7 21 1 12 10 13 9 8 -6 -5 -13 -4 -16 4 -11
8 5 10 1 5 -10 -5 -13 -3 -16 10 -11 11 4 14 2 10 -9 -3 -8 1 -14 8 -14 9 0
10 -3 2 -11 -14 -14 -5 -51 11 -42 8 5 8 3 -1 -8 -14 -18 -9 -112 6 -117 9 -3
9 -8 1 -17 -8 -9 -8 -15 0 -20 7 -4 7 -12 0 -25 -7 -13 -7 -21 0 -25 8 -5 7
-11 -1 -21 -8 -10 -8 -14 0 -14 6 0 10 -3 10 -7 -1 -5 -1 -21 0 -38 1 -24 3
-27 12 -15 9 12 10 11 6 -7 -3 -12 -2 -22 2 -21 3 0 13 0 21 -1 13 -1 13 -2 0
-11 -12 -8 -12 -10 -1 -10 8 0 11 -3 8 -7 -4 -3 1 -15 10 -26 10 -11 12 -17 5
-13 -11 7 -12 4 -3 -13 7 -11 14 -21 17 -21 3 0 3 4 0 8 -2 4 0 14 5 22 6 11
8 5 4 -17 -3 -18 -1 -33 4 -33 4 0 8 -8 8 -17 0 -35 3 -44 12 -38 5 3 12 1 16
-5 3 -5 0 -10 -7 -10 -10 0 -10 -2 1 -9 7 -5 10 -14 7 -20 -4 -6 -2 -11 3 -11
6 0 11 -7 11 -15 0 -8 5 -15 11 -15 5 0 7 -4 4 -10 -4 -6 1 -7 11 -3 11 4 15
3 11 -4 -9 -14 2 -45 13 -38 5 3 11 1 15 -5 3 -5 0 -10 -7 -10 -10 -1 -9 -4 2
-13 9 -7 14 -19 12 -29 -2 -9 2 -20 9 -24 8 -5 9 -3 4 6 -6 9 -4 11 4 5 9 -5
9 -11 3 -17 -6 -6 -7 -17 -2 -27 5 -9 11 -24 14 -35 5 -14 9 -16 20 -7 12 10
13 8 9 -8 -3 -14 0 -23 11 -27 11 -4 15 -13 11 -28 -5 -17 -4 -18 4 -6 10 13
15 8 12 -13 0 -4 2 -6 6 -6 33 5 51 -27 55 -101 0 -8 6 -21 12 -29 8 -11 8
-13 -1 -7 -9 5 -11 2 -7 -8 3 -9 10 -16 15 -16 5 0 5 -10 0 -23 -5 -14 -5 -30
0 -40 6 -9 6 -17 1 -17 -10 0 -9 -36 1 -46 4 -4 7 -16 7 -26 0 -10 5 -18 12
-18 9 0 9 -3 1 -11 -6 -6 -9 -18 -6 -25 3 -8 -1 -14 -10 -14 -9 0 -19 -5 -23
-12 -4 -7 -3 -8 4 -4 7 4 12 3 12 -2 0 -13 -29 -24 -42 -15 -7 3 -8 1 -4 -5 6
-10 -5 -16 -25 -14 -4 1 -6 -6 -5 -15 0 -9 -9 -22 -21 -28 -13 -7 -20 -15 -15
-20 4 -4 -3 -2 -15 4 -13 6 -23 8 -23 3 0 -6 -20 -15 -45 -21 -25 -6 -45 -17
-45 -24 0 -8 -7 -14 -15 -14 -12 0 -12 3 -2 16 7 9 1 7 -15 -4 -15 -11 -29
-28 -32 -39 -3 -12 -10 -16 -20 -13 -9 4 -16 2 -16 -4 0 -6 -4 -8 -9 -5 -4 3
-16 -3 -26 -14 -15 -16 -21 -18 -33 -7 -10 7 -13 8 -9 1 10 -16 -18 -25 -32
-11 -9 9 -11 8 -5 -6 5 -13 2 -16 -11 -11 -9 4 -20 2 -24 -3 -3 -6 -17 -14
-30 -18 -17 -5 -21 -4 -16 5 4 7 -4 4 -19 -5 -18 -12 -26 -14 -26 -5 0 10 -3
10 -15 0 -8 -7 -12 -17 -8 -23 3 -6 1 -7 -6 -3 -6 4 -9 11 -7 15 3 4 -1 8 -9
8 -8 0 -13 -3 -11 -6 2 -3 -6 -15 -17 -26 -11 -11 -17 -15 -13 -8 3 6 2 15 -4
18 -6 4 -10 3 -9 -2 3 -20 -2 -34 -11 -28 -18 11 -32 -6 -18 -23 11 -13 11
-14 0 -8 -24 14 -64 15 -58 0 3 -8 -2 -11 -17 -9 -11 3 -28 -2 -37 -10 -8 -7
-24 -12 -35 -11 -11 2 -28 0 -37 -5 -11 -6 -18 -5 -21 4 -4 9 -6 9 -6 0 -1 -7
-12 -13 -26 -13 -13 0 -29 -8 -34 -17 -6 -10 -11 -13 -11 -6 0 7 -7 10 -15 7
-8 -4 -12 -11 -8 -17 3 -6 1 -7 -5 -3 -6 4 -21 2 -33 -5 -15 -8 -19 -8 -15 0
4 6 3 11 -3 11 -5 0 -11 -5 -13 -12 -2 -6 -20 -12 -40 -12 -24 -1 -33 -4 -28
-12 6 -7 -1 -9 -20 -8 -22 1 -30 -2 -30 -14 0 -15 -2 -15 -10 -2 -7 11 -10 11
-10 2 0 -7 -5 -10 -11 -6 -8 4 -8 0 0 -15 10 -17 9 -21 -4 -21 -9 0 -13 -4
-10 -10 3 -5 1 -10 -5 -10 -6 0 -8 -5 -4 -12 5 -8 0 -7 -11 2 -11 9 -16 10
-11 3 4 -7 2 -13 -3 -13 -6 0 -11 -5 -11 -11 0 -5 5 -7 10 -4 6 3 10 1 10 -5
0 -6 -9 -10 -19 -8 -23 4 -62 -29 -55 -47 3 -7 0 -16 -7 -21 -8 -4 -10 -3 -5
4 4 7 2 12 -3 12 -6 0 -11 -7 -11 -15 0 -8 -9 -23 -20 -32 -11 -10 -20 -26
-20 -36 0 -11 -4 -15 -12 -11 -6 4 -8 3 -5 -3 4 -6 0 -16 -9 -23 -8 -7 -13
-19 -10 -27 3 -7 1 -13 -4 -13 -5 0 -6 -7 -3 -17 4 -10 2 -14 -4 -10 -6 4 -14
0 -17 -9 -4 -10 -2 -13 7 -8 6 4 4 -1 -5 -12 -10 -11 -16 -30 -13 -41 2 -15
-1 -20 -9 -17 -10 4 -13 -3 -10 -26 3 -22 0 -29 -8 -24 -8 5 -9 2 -5 -9 3 -10
2 -17 -3 -17 -5 0 -6 -7 -3 -17 5 -11 3 -14 -6 -8 -10 5 -11 2 -7 -13 5 -14 1
-24 -11 -31 -10 -6 -13 -11 -6 -11 6 0 9 -9 6 -20 -3 -11 -9 -18 -13 -15 -4 3
-10 -2 -13 -9 -3 -8 -1 -17 6 -20 7 -2 5 -5 -5 -5 -14 -1 -15 -6 -8 -31 5 -18
5 -32 -1 -36 -6 -3 -8 -11 -6 -18 3 -7 -1 -23 -8 -36 -7 -13 -11 -30 -8 -37 3
-7 1 -13 -4 -13 -5 0 -9 -16 -8 -35 0 -19 -2 -35 -6 -35 -3 0 -3 -18 1 -40 4
-22 3 -40 -1 -40 -11 0 -7 -23 6 -32 6 -5 5 -8 -2 -8 -7 0 -13 -12 -13 -26 0
-19 -4 -25 -15 -20 -13 5 -14 2 -4 -15 8 -17 8 -20 -1 -14 -16 10 -32 -16 -19
-31 6 -8 4 -14 -6 -18 -9 -3 -13 -11 -9 -17 12 -20 12 -79 0 -72 -6 4 -5 -1 3
-10 7 -9 18 -14 24 -10 7 4 8 0 3 -13 -4 -10 -9 -28 -10 -40 -2 -11 -10 -34
-18 -50 -15 -32 -13 -58 4 -48 7 4 8 2 4 -4 -4 -7 -14 -12 -21 -12 -9 0 -12
-6 -8 -17 5 -12 3 -14 -8 -8 -12 8 -12 6 0 -8 10 -13 10 -17 1 -17 -7 0 -10
-8 -7 -20 3 -11 2 -18 -3 -15 -9 6 -22 -53 -14 -66 3 -5 1 -9 -5 -9 -7 0 -7
-8 -2 -23 5 -14 6 -30 0 -38 -6 -10 -2 -15 13 -19 12 -3 24 -12 26 -19 3 -10
-1 -12 -17 -8 -18 4 -20 3 -10 -9 6 -8 8 -14 4 -14 -4 0 -2 -6 4 -14 9 -11 8
-17 -4 -29 -17 -17 -20 -31 -5 -22 6 3 7 -1 4 -9 -3 -9 -10 -16 -16 -16 -5 0
-6 -5 -2 -11 3 -6 0 -15 -7 -20 -11 -7 -11 -9 -1 -9 10 0 9 -4 -3 -16 -12 -12
-13 -19 -4 -30 8 -9 8 -14 1 -14 -11 0 -9 -31 3 -50 3 -6 -1 -10 -10 -10 -13
0 -14 -4 -4 -21 8 -15 8 -19 0 -15 -6 4 -11 0 -12 -11 0 -10 -2 -34 -3 -53 -1
-19 2 -43 6 -52 4 -9 4 -19 0 -22 -9 -5 -7 -89 2 -105 4 -5 3 -12 -1 -14 -6
-4 -9 -126 -4 -169 2 -13 4831 -10 4831 3 0 5 -6 7 -12 3 -10 -6 -10 -5 -1 8
7 8 14 27 15 42 1 14 7 26 13 26 5 0 4 4 -4 9 -9 6 -10 11 -2 15 6 4 9 12 6
17 -4 5 -2 9 3 9 6 0 8 9 5 20 -3 11 1 28 8 37 9 11 10 14 2 9 -9 -5 -11 -2
-7 8 3 9 10 14 14 11 13 -8 19 22 7 34 -9 10 -9 12 3 9 10 -2 14 3 12 15 -2 9
2 17 9 17 8 0 7 5 -2 18 -7 9 -9 14 -5 10 11 -9 36 10 36 26 0 6 -5 4 -10 -4
-5 -8 -10 -10 -10 -5 0 6 5 16 11 22 13 13 18 82 7 90 -5 2 -6 8 -3 13 11 17
8 210 -3 223 -9 10 -8 17 0 25 7 7 8 12 2 12 -6 0 -11 16 -12 36 -1 20 -7 43
-14 52 -10 12 -10 14 0 8 6 -4 12 -2 12 3 0 6 -4 11 -10 11 -5 0 -8 22 -7 49
2 42 0 48 -13 38 -8 -6 -12 -8 -8 -3 4 4 2 19 -3 33 -7 20 -6 30 8 46 13 14
13 18 3 12 -12 -7 -13 -6 -4 6 16 21 23 69 10 69 -7 0 -7 3 1 8 7 5 9 13 3 21
-4 8 -6 21 -2 29 3 10 1 13 -6 8 -8 -5 -10 -2 -6 8 3 9 1 16 -5 16 -8 0 -9 5
-3 17 5 9 6 29 2 44 -5 16 -4 31 2 37 8 8 4 9 -10 5 -17 -4 -21 -1 -17 16 2
12 0 21 -5 21 -4 0 -7 37 -6 82 1 56 5 83 13 83 6 0 15 4 20 9 5 5 3 6 -4 2
-16 -9 -17 10 -2 19 6 4 9 21 8 39 -2 17 0 36 4 43 5 7 1 9 -12 6 -16 -4 -19
0 -17 21 2 14 -1 23 -5 20 -5 -3 -7 9 -5 25 2 17 -1 31 -7 31 -5 0 -4 7 3 15
10 12 10 15 -1 15 -11 0 -11 2 1 10 12 7 11 12 -5 31 -11 12 -14 19 -7 15 17
-10 15 9 -2 24 -11 8 -12 18 -6 35 5 13 6 26 2 30 -10 10 -9 29 3 37 6 5 3 8
-7 8 -13 0 -18 8 -18 28 0 15 -6 34 -12 41 -10 11 -10 13 0 7 17 -10 15 2 -4
21 -12 13 -13 18 -3 24 10 6 9 9 -4 15 -13 5 -15 10 -7 19 8 10 6 15 -10 20
-18 6 -19 9 -8 23 10 12 10 14 1 8 -9 -5 -13 -1 -13 11 0 10 -9 24 -20 31 -11
7 -20 17 -20 23 0 5 5 7 10 4 6 -3 10 -1 10 4 0 10 -14 15 -33 12 -4 -1 -3 8
4 20 8 15 8 19 0 15 -6 -4 -11 -2 -11 4 0 6 -4 8 -10 5 -6 -4 -7 1 -3 11 4 12
3 15 -5 10 -8 -5 -10 -1 -5 10 5 13 3 16 -10 11 -9 -3 -19 -1 -23 5 -4 7 -3 8
4 4 7 -4 12 -2 12 3 0 6 -10 11 -22 11 -19 0 -20 2 -8 10 10 6 11 10 3 10 -26
0 -28 2 -40 23 -6 12 -15 21 -20 20 -4 -2 -8 2 -8 7 0 6 -4 10 -10 11 -5 0
-13 9 -17 20 -4 10 -15 19 -23 19 -10 0 -13 5 -9 12 5 7 2 9 -8 6 -11 -5 -15
0 -14 14 1 15 -6 22 -24 25 -14 2 -26 8 -28 13 -2 6 -10 10 -18 10 -8 0 -14 5
-14 11 0 6 -8 9 -18 7 -10 -3 -23 1 -31 9 -10 11 -16 11 -27 2 -10 -8 -14 -8
-14 0 0 15 -49 -5 -71 -30 -18 -21 -84 -35 -94 -19 -3 6 -16 10 -27 10 -12 0
-18 3 -15 7 8 7 -39 33 -60 33 -9 0 -11 5 -7 13 6 9 4 9 -8 -1 -14 -11 -18
-10 -26 4 -5 9 -16 15 -24 11 -8 -3 -21 3 -28 13 -7 10 -22 17 -32 15 -10 -2
-16 0 -13 4 3 5 -2 11 -10 15 -10 3 -15 -1 -16 -12 0 -13 -3 -11 -9 6 -5 12
-14 22 -20 22 -6 0 -8 -5 -4 -12 4 -7 3 -8 -5 -4 -6 4 -9 11 -7 15 3 4 -4 13
-16 20 -16 10 -19 10 -12 -1 6 -10 4 -10 -9 1 -9 7 -17 10 -17 5 0 -5 -4 -3
-9 4 -5 8 -20 15 -34 15 -14 1 -23 6 -19 11 3 5 -5 7 -16 4 -13 -4 -20 -2 -16
4 3 5 -3 12 -15 15 -12 3 -21 9 -21 14 0 5 -3 8 -7 8 -25 -4 -43 2 -37 13 5 7
0 9 -14 6 -14 -4 -19 -2 -16 7 3 7 0 16 -7 21 -8 4 -10 3 -5 -4 5 -8 2 -10 -8
-6 -9 3 -13 10 -10 15 3 5 -6 9 -20 9 -17 0 -26 5 -26 16 0 14 -3 14 -15 4
-13 -11 -14 -10 -9 5 5 13 4 16 -4 11 -7 -4 -12 -3 -12 1 0 5 -10 10 -22 11
-13 1 -32 4 -43 6 -11 3 -23 5 -27 5 -5 1 -8 10 -8 21 0 11 -7 20 -16 20 -8 0
-13 4 -10 9 3 5 -1 12 -10 15 -10 4 -13 2 -8 -7 5 -9 4 -9 -7 1 -17 16 -39 16
-35 0 1 -7 1 -10 -1 -5 -3 4 -17 7 -31 7 -26 1 -64 21 -63 34 3 21 -1 27 -16
24 -13 -2 -17 3 -15 19 2 12 -2 25 -9 29 -8 5 -9 3 -4 -6 5 -9 4 -11 -4 -6 -9
6 -9 11 1 24 11 13 11 14 -1 7 -11 -6 -13 -3 -9 13 4 12 2 20 -3 16 -5 -3 -9
-2 -10 3 0 4 -3 31 -5 58 -2 28 -6 77 -10 110 -3 33 -7 180 -8 327 -2 266 -2
266 20 276 15 7 25 7 33 -1 8 -8 11 -8 11 2 0 7 5 9 10 6 6 -3 10 -1 10 6 0 8
4 8 15 -1 13 -11 14 -10 10 1 -3 8 2 23 11 34 8 11 13 14 9 8 -3 -7 -1 -13 4
-13 6 0 11 5 11 11 0 5 4 7 10 4 6 -4 7 1 3 11 -5 13 -3 15 7 9 8 -5 11 -4 6
3 -3 6 -2 13 3 17 6 3 8 12 4 20 -3 9 0 22 7 30 7 8 10 22 6 30 -3 8 0 15 6
15 6 0 8 3 5 6 -3 4 -1 16 5 28 14 26 17 288 4 298 -14 10 -17 39 -3 31 8 -5
8 -2 0 9 -7 8 -10 18 -6 21 3 4 -1 7 -10 7 -9 0 -17 5 -17 11 0 5 4 7 10 4 6
-3 7 1 4 9 -3 9 -14 16 -23 17 -10 0 -11 2 -4 6 10 3 10 8 -1 19 -17 17 -30
19 -20 2 4 -7 3 -8 -4 -4 -6 4 -8 14 -5 23 4 9 2 14 -3 11 -5 -4 -9 21 -9 58
0 47 4 67 15 74 13 8 13 10 -1 10 -11 0 -16 8 -15 23 1 12 -1 32 -5 44 -5 14
-4 23 4 27 7 2 4 5 -7 5 -12 1 -16 6 -13 16 4 8 2 17 -4 21 -6 3 -8 12 -5 20
3 8 -1 14 -9 14 -9 0 -12 6 -9 15 4 8 1 15 -5 15 -7 0 -10 11 -8 28 5 37 -11
94 -31 110 -14 11 -14 12 4 13 18 0 18 1 -1 9 -11 5 -17 9 -12 9 4 1 0 16 -9
34 -17 31 -17 32 2 17 18 -14 18 -14 5 3 -7 9 -21 17 -30 17 -14 0 -14 2 -1
10 13 8 13 10 -2 10 -12 0 -15 5 -11 17 4 10 2 14 -4 10 -13 -8 -24 18 -17 38
4 8 1 15 -6 15 -6 0 -8 -4 -5 -10 11 -18 -11 -11 -29 9 -10 10 -16 27 -14 38
2 13 -3 18 -20 17 -19 -1 -21 1 -10 15 7 9 9 13 4 9 -5 -4 -15 0 -24 8 -11 11
-17 12 -22 4 -5 -8 -9 -4 -13 9 -3 14 -10 19 -21 15 -9 -3 -16 -1 -16 4 0 6
-9 9 -20 7 -11 -2 -20 0 -20 4 0 4 -30 18 -67 31 -38 12 -75 29 -84 37 -9 7
-18 11 -21 8 -3 -3 -18 1 -34 10 -16 8 -38 15 -50 15 -11 0 -24 3 -27 6 -4 4
-21 8 -39 9 -18 2 -64 8 -103 15 -38 7 -92 14 -120 15 -27 2 -52 4 -55 5 -10
4 -83 1 -87 -4 -3 -2 -17 0 -33 4 -16 4 -31 5 -35 2z m-445 -232 c0 -5 -5 -10
-11 -10 -5 0 -7 5 -4 10 3 6 8 10 11 10 2 0 4 -4 4 -10z m-1120 -2975 c-7 -9
-15 -13 -17 -11 -6 6 20 36 26 30 2 -2 -2 -10 -9 -19z"/>
<path d="M3425 5241 c-3 -5 -2 -12 3 -15 5 -3 9 1 9 9 0 17 -3 19 -12 6z"/>
<path d="M3630 2951 c0 -6 4 -13 10 -16 6 -3 7 1 4 9 -7 18 -14 21 -14 7z"/>
<path d="M3800 2881 c0 -6 4 -13 10 -16 6 -3 7 1 4 9 -7 18 -14 21 -14 7z"/>
</g>
</svg>
